<?xml version="1.0" encoding="iso-8859-1"?>
<!-- Generator: Adobe Illustrator 21.0.0, SVG Export Plug-In . SVG Version: 6.00 Build 0)  -->
<svg version="1.1" id="Capa_1" xmlns="http://www.w3.org/2000/svg" xmlns:xlink="http://www.w3.org/1999/xlink" x="0px" y="0px"
	 viewBox="0 0 512.002 512.002" style="enable-background:new 0 0 512.002 512.002;" xml:space="preserve">
<g>
	<path style="fill:#F3F3C2;" d="M169.42,430.777c0,0-21.651-19.951-56.632-31.437c-10.127-0.693-19.967-2.979-29.201-6.656
		c-18.171-2.347-38.518-1.649-60.337,4.539c0,0-7.194,8.041-13.248,24.165C24.711,446.016,130.879,461.052,169.42,430.777z"/>
	<path style="fill:#F3F3C2;" d="M140.008,397.32c17.244-3.776,32.427-11.993,44.619-23.181c2.9,0.933,5.849,1.732,8.839,2.391
		c-25.377-20.294-41.704-51.491-41.704-86.317c2.265-56.152,35.673-90.706,70.953-121.734c-27-18.09-54.895-39.489-75.368-75.923
		l-33.367,7.307c2.67,78.119-107.089,124.541-89.583,223.386c7.146,32.628,30.177,57.888,59.191,69.436
		c9.228,3.672,19.061,5.954,29.18,6.649c0.007,0.002,0.014,0.005,0.02,0.007C121.711,399.951,130.858,399.324,140.008,397.32z"/>
	<path style="fill:#F3F3C2;" d="M193.466,376.53c18.912,15.123,42.85,24.191,68.804,24.191c20.092,0,38.974-5.438,55.254-14.91
		c10.788,6.276,22.718,10.78,35.386,13.106c22.374-16.53,56.938-34.577,98.573-31.333c19.639-19.974,31.802-47.319,31.802-77.371
		c0-93.305-104.764-115.591-138.647-226.559h-38.879c-8.158,44.466-46.6,72.764-83.044,104.825
		c-35.28,31.028-68.688,65.583-70.953,121.734C151.763,325.039,168.089,356.237,193.466,376.53z"/>
	<path style="fill:#F3F3C2;" d="M352.91,398.917c-17.618,13.017-27.677,25.093-27.677,25.093
		c42.735,43.718,160.459,22.005,176.769-13.557c-6.713-23.283-14.69-34.895-14.69-34.895c-12.406-4.582-24.385-7.083-35.829-7.974
		c-0.005,0.005-0.01,0.01-0.015,0.015c-41.627-3.237-76.18,14.796-98.552,31.319C352.914,398.918,352.912,398.917,352.91,398.917z"
		/>
</g>
<path d="M391.944,161.826l0.202,0.222c1.972,2.138,4.658,3.221,7.354,3.221c2.423,0,4.854-0.876,6.776-2.648
	c4.06-3.744,4.316-10.07,0.572-14.131l-0.078-0.086c-0.005-0.005-0.075-0.083-0.08-0.088c-3.713-4.083-9.998-4.352-14.085-0.644
	C388.518,151.38,388.241,157.736,391.944,161.826z"/>
<path d="M248.184,219.241c7.88-7.324,16.17-14.497,24.187-21.435c4.646-4.021,9.452-8.179,14.134-12.327
	c4.133-3.664,4.515-9.983,0.85-14.117c-3.661-4.132-9.982-4.517-14.116-0.851c-4.593,4.07-9.352,8.188-13.955,12.171
	c-8.148,7.052-16.575,14.343-24.716,21.909c-22.187,20.624-46.025,45.978-48.021,85.994c-0.011,0.21-0.015,0.42-0.012,0.631
	c0.22,16.596,5.786,32.328,16.097,45.498c1.973,2.52,4.911,3.837,7.881,3.836c2.156,0,4.328-0.694,6.157-2.126
	c4.35-3.404,5.114-9.69,1.71-14.038c-7.524-9.61-11.615-21.059-11.842-33.124C208.101,262.084,223.64,242.056,248.184,219.241z"/>
<path d="M371.578,240.179c-5.522,0-10,4.477-10,10v0.432c0,5.522,4.478,10,10,10c5.523,0,10-4.478,10-10v-0.432
	C381.578,244.657,377.101,240.179,371.578,240.179z"/>
<path d="M130.26,363.627c0.65,0,1.311-0.064,1.972-0.196l0.332-0.069c5.389-1.176,8.77-6.484,7.605-11.875
	c-1.164-5.386-6.492-8.801-11.891-7.661c-5.397,1.098-8.894,6.355-7.813,11.761C121.415,360.34,125.591,363.627,130.26,363.627z"/>
<path d="M100.111,361.664c1.037,0.341,2.09,0.503,3.125,0.503c4.202,0,8.114-2.671,9.498-6.88
	c1.725-5.247-1.131-10.898-6.377-12.623c-14.006-4.604-24.795-16.129-28.229-30.127c-0.158-0.988-0.295-1.988-0.407-2.98
	c-0.624-5.488-5.573-9.418-11.065-8.808c-5.487,0.624-9.431,5.578-8.808,11.065c0.164,1.44,0.367,2.896,0.604,4.328
	c0.037,0.226,0.082,0.449,0.135,0.672C63.523,337.683,79.435,354.868,100.111,361.664z"/>
<path d="M511.61,407.683c-7.08-24.558-15.693-37.258-16.057-37.787c-1.17-1.703-2.839-3.002-4.777-3.718
	c-6.661-2.461-13.378-4.401-20.129-5.842c14.697-20.37,22.638-44.693,22.638-70.123c0-52.958-32.325-85.948-60.845-115.055
	c-3.863-3.944-10.194-4.01-14.142-0.144c-3.944,3.865-4.009,10.196-0.144,14.142c33.302,33.986,55.13,59.382,55.13,101.057
	c0,24.924-9.16,48.591-25.886,67.126c-18.071-0.767-34.783,2.15-49.748,7.009c-0.444,0.143-0.887,0.292-1.33,0.44
	c-0.644,0.216-1.285,0.434-1.923,0.657c-0.653,0.227-1.306,0.457-1.958,0.693c-0.298,0.109-0.592,0.22-0.889,0.33
	c-8.455,3.123-16.844,7.025-25.125,11.729c-5.719,3.25-10.999,6.654-15.81,10.043c-4.499-1.022-8.904-2.368-13.207-4.001
	c28.337-22.74,45.368-57.365,45.368-94.025v-12.902c0-5.522-4.478-10-10-10s-10,4.478-10,10v12.902
	c0,35.591-19.267,68.91-50.282,86.955c-0.002,0.001-0.004,0.003-0.006,0.004c-15.238,8.864-32.603,13.549-50.219,13.549
	c-23.228,0-44.638-7.923-61.677-21.205c-0.273-0.277-0.558-0.545-0.868-0.793c-19.527-15.612-32.312-37.335-36.478-61.277
	c-0.02-0.118-0.04-0.237-0.06-0.355c-0.129-0.755-0.248-1.513-0.36-2.273c-0.03-0.203-0.058-0.406-0.087-0.609
	c-0.095-0.678-0.183-1.358-0.264-2.039c-0.03-0.254-0.061-0.509-0.089-0.764c-0.071-0.636-0.134-1.273-0.193-1.911
	c-0.026-0.285-0.054-0.57-0.078-0.856c-0.052-0.619-0.095-1.24-0.135-1.861c-0.019-0.296-0.042-0.592-0.058-0.889
	c-0.036-0.643-0.062-1.289-0.086-1.934c-0.01-0.269-0.025-0.537-0.032-0.807c-0.026-0.91-0.042-1.822-0.044-2.735
	c0.073-1.742,0.183-3.459,0.321-5.159c0.044-0.548,0.108-1.082,0.159-1.626c0.108-1.146,0.218-2.291,0.355-3.419
	c0.075-0.622,0.167-1.234,0.251-1.85c0.141-1.037,0.286-2.071,0.452-3.092c0.101-0.622,0.213-1.236,0.322-1.852
	c0.179-1.009,0.366-2.013,0.568-3.007c0.119-0.586,0.245-1.167,0.372-1.747c0.226-1.028,0.462-2.049,0.712-3.06
	c0.127-0.516,0.256-1.031,0.39-1.543c0.288-1.1,0.59-2.19,0.906-3.272c0.117-0.402,0.232-0.806,0.353-1.206
	c0.384-1.267,0.788-2.52,1.21-3.761c0.068-0.199,0.131-0.4,0.199-0.599c10.511-30.407,32.132-53.346,55.586-74.434
	c0.122-0.109,0.244-0.218,0.366-0.327c0.872-0.783,1.748-1.563,2.625-2.341c0.624-0.554,1.249-1.106,1.875-1.657
	c4.326-3.814,8.69-7.581,13.039-11.331c30.295-26.125,61.555-53.08,71.918-91.475h23.625c8.026,23.434,19.912,45.209,36.199,66.36
	c3.37,4.376,9.648,5.191,14.024,1.821c4.375-3.369,5.191-9.648,1.821-14.024c-16.649-21.621-27.837-42.936-35.208-67.077
	c-1.284-4.207-5.166-7.08-9.564-7.08h-38.879c-4.827,0-8.965,3.448-9.836,8.195c-6.585,35.896-36.01,61.271-67.162,88.134
	c-2.257,1.946-4.532,3.908-6.814,5.889c-22.775-15.675-47.534-35.562-65.883-68.216c-2.153-3.833-6.561-5.81-10.856-4.869
	l-33.367,7.307c-4.716,1.032-8.021,5.286-7.855,10.11c1.08,31.618-19.279,58.76-40.834,87.494
	C35.5,224.56,4.161,266.34,14.548,324.994c0.023,0.132,0.05,0.264,0.078,0.396c4.879,22.278,16.527,41.998,33.36,56.918
	c-9.218,0.96-18.389,2.723-27.466,5.298c-1.822,0.517-3.461,1.54-4.724,2.952c-0.865,0.966-8.633,9.94-15.158,27.317
	c-1.07,2.85-0.784,6.03,0.776,8.644c9.697,16.237,39.918,23.994,57.068,27.173c13.404,2.484,28.199,3.915,42.921,3.915
	c28.605,0,56.925-5.401,74.191-18.964c2.305-1.811,3.699-4.542,3.814-7.471c0.115-2.929-1.061-5.762-3.216-7.747
	c-0.604-0.557-10.021-9.124-26.207-18.381c13.528-4.066,26.152-10.787,37.074-19.777c0.592,0.156,1.186,0.285,1.78,0.431
	c20.344,15.681,45.814,25.024,73.428,25.024c19.231,0,38.214-4.651,55.251-13.498c4.57,2.378,9.276,4.431,14.084,6.192
	c-8.748,7.887-13.671,13.733-14.056,14.195c-3.282,3.941-3.052,9.724,0.532,13.391c19.698,20.151,51.522,27.343,82.251,27.343
	c12.246,0,24.325-1.143,35.384-3.064c29.799-5.177,65.248-18.576,75.375-40.656C512.09,412.446,512.273,409.984,511.61,407.683z
	 M34.208,321.305C25.442,271.3,52.745,234.901,79.15,199.701c21.018-28.02,42.698-56.923,44.723-91.768l18.526-4.057
	c18.03,29.399,41.012,49.248,64.175,65.642c-9.147,8.388-18.229,17.373-26.579,27.232c-0.521,0.614-1.038,1.231-1.553,1.851
	c-0.194,0.234-0.39,0.466-0.583,0.701c-0.806,0.98-1.6,1.97-2.389,2.966c-0.081,0.103-0.163,0.205-0.244,0.308
	c-16.596,21.036-29.281,45.747-32.678,76.86c-0.015,0.137-0.031,0.274-0.046,0.411c-0.159,1.495-0.296,3.006-0.412,4.531
	c-0.02,0.26-0.037,0.522-0.055,0.783c-0.108,1.536-0.202,3.082-0.265,4.649c-0.005,0.135-0.008,0.269-0.008,0.403
	c0,0.99,0.014,1.978,0.038,2.964c0.009,0.357,0.025,0.712,0.037,1.069c0.021,0.625,0.041,1.25,0.072,1.873
	c0.021,0.437,0.05,0.871,0.076,1.307c0.032,0.537,0.063,1.073,0.102,1.609c0.035,0.478,0.076,0.953,0.116,1.429
	c0.041,0.488,0.083,0.977,0.13,1.464c0.049,0.504,0.103,1.006,0.158,1.508c0.05,0.453,0.101,0.906,0.156,1.357
	c0.064,0.526,0.131,1.051,0.202,1.575c0.057,0.42,0.116,0.84,0.177,1.259c0.08,0.547,0.162,1.093,0.249,1.637
	c0.062,0.389,0.128,0.777,0.193,1.164c0.097,0.57,0.195,1.139,0.299,1.706c0.064,0.348,0.133,0.694,0.2,1.041
	c0.116,0.601,0.234,1.202,0.359,1.8c0.061,0.291,0.127,0.581,0.19,0.871c0.141,0.649,0.283,1.298,0.434,1.943
	c0.043,0.182,0.09,0.362,0.133,0.544c1.031,4.296,2.291,8.503,3.769,12.608c0.016,0.045,0.032,0.091,0.048,0.136
	c0.288,0.796,0.586,1.587,0.89,2.376c0.029,0.076,0.057,0.152,0.087,0.228c0.307,0.791,0.624,1.577,0.947,2.36
	c0.027,0.065,0.053,0.129,0.079,0.194c0.336,0.811,0.682,1.617,1.036,2.419c0.011,0.024,0.021,0.049,0.032,0.073
	c5.244,11.875,12.345,22.752,20.942,32.254c-10.257,8.082-22.253,13.768-35.045,16.569c-8.103,1.775-16.289,2.353-24.366,1.813
	c-0.017-0.001-0.034-0.006-0.051-0.007c-6.721-0.462-13.35-1.704-19.783-3.704c-0.01-0.003-0.02-0.006-0.031-0.009
	c-2.141-0.666-4.26-1.416-6.354-2.249c-0.035-0.014-0.072-0.022-0.108-0.035c-5.123-2.054-10.098-4.6-14.857-7.649
	C52.726,363.156,39.196,343.84,34.208,321.305z M62.13,434.025c-20.665-3.83-34.417-9.693-40.533-14.573
	c2.906-6.532,5.786-11.034,7.507-13.456c17.112-4.445,34.565-5.638,51.957-3.547c9.604,3.708,19.628,5.991,29.814,6.796
	c17.646,5.955,31.671,14.213,40.65,20.378C127.874,439.583,90.673,439.314,62.13,434.025z M432.293,435.574
	c-37.396,6.5-72.277,1.624-92.52-12.371c4.565-4.47,11.291-10.532,19.82-16.776c0.021-0.015,0.042-0.03,0.063-0.046
	c0.736-0.538,1.49-1.077,2.252-1.617c0.178-0.126,0.353-0.251,0.533-0.377c0.611-0.429,1.236-0.858,1.863-1.287
	c0.796-0.543,1.603-1.086,2.428-1.629c0.126-0.083,0.249-0.166,0.375-0.249c0.714-0.467,1.438-0.934,2.173-1.399
	c0.007-0.005,0.015-0.009,0.022-0.014c20.295-12.85,48.559-24.788,81.393-22.241c0.267,0.021,0.532,0.019,0.797,0.018
	c9.725,0.839,19.437,2.905,29.115,6.202c2.224,3.953,6.518,12.455,10.582,25.427C483.311,420.202,460.021,430.756,432.293,435.574z"
	/>
<g>
</g>
<g>
</g>
<g>
</g>
<g>
</g>
<g>
</g>
<g>
</g>
<g>
</g>
<g>
</g>
<g>
</g>
<g>
</g>
<g>
</g>
<g>
</g>
<g>
</g>
<g>
</g>
<g>
</g>
</svg>
