<?xml version="1.0" encoding="iso-8859-1"?>
<!-- Generator: Adobe Illustrator 21.0.0, SVG Export Plug-In . SVG Version: 6.00 Build 0)  -->
<svg version="1.1" id="Capa_1" xmlns="http://www.w3.org/2000/svg" xmlns:xlink="http://www.w3.org/1999/xlink" x="0px" y="0px"
	 viewBox="0 0 512 512" style="enable-background:new 0 0 512 512;" xml:space="preserve">
<g>
	<path style="fill:#00C56E;" d="M300.009,152.804c12.147,4.611,24.004,12.373,35.408,23.777
		c11.404,11.404,19.167,23.262,23.778,35.408c4.867,12.823,6.222,25.969,4.642,39.246c12.055,8.095,29.799,14.507,44.928,10.453
		c24.162-6.475,39.781-28.91,38.56-52.924c24.013,1.221,46.448-14.397,52.924-38.56c6.474-24.163-5.146-48.907-26.552-59.856
		c13.063-20.186,10.754-47.425-6.933-65.113c-17.689-17.688-44.927-19.997-65.113-6.933c-10.948-21.406-35.694-33.027-59.856-26.553
		s-39.781,28.911-38.56,52.924c-24.013-1.221-46.448,14.398-52.923,38.56c-4.054,15.128,2.762,32.824,10.857,44.88
		C274.307,146.61,287.317,147.986,300.009,152.804z"/>
	<path style="fill:#FF8244;" d="M359.195,211.99c-4.611-12.146-12.373-24.004-23.778-35.408
		c-11.404-11.404-23.261-19.167-35.408-23.777c-12.692-4.818-25.702-6.195-38.842-4.689
		C129.911,163.154-14.381,465.769,13.518,498.482c11.256,9.6,54.473-1.189,106.932-24.82
		c99.836-44.971,233.153-136.454,243.387-222.427C365.417,237.959,364.062,224.813,359.195,211.99z"/>
</g>
<path d="M176.27,202.369c2.368,0,4.748-0.831,6.657-2.515l0.184-0.162c4.128-3.669,4.5-9.99,0.831-14.118
	c-3.67-4.129-9.991-4.499-14.118-0.83l-0.198,0.174c-4.141,3.654-4.502,9.943-0.848,14.084
	C170.748,201.235,173.501,202.369,176.27,202.369z"/>
<path d="M486.887,106.815c9.93-22.983,5.086-50.507-13.054-68.649c-18.141-18.141-45.664-22.985-68.649-13.054
	c-14.936-20.093-41.196-29.66-65.98-23.02c-24.782,6.641-42.739,28.056-45.629,52.925c-24.869,2.89-46.284,20.848-52.925,45.63
	c-3.96,14.781,0.328,29.642,5.093,40.167c-16.772,4.251-34.182,12.601-52.051,25.069c-4.529,3.161-5.639,9.394-2.479,13.923
	c3.161,4.529,9.394,5.639,13.923,2.479c47.619-33.228,89.074-32.769,123.209,1.367c37.972,37.972,34.364,84.726-10.704,138.994
	l-25.794-25.794c-3.905-3.905-10.236-3.905-14.143,0c-3.905,3.905-3.905,10.237,0,14.142l26.616,26.616
	c-38.228,40.274-96.135,81.34-161.75,114.407c-6.713,3.383-13.385,6.601-19.969,9.651l-22.539-22.538
	c-3.905-3.905-10.237-3.906-14.142,0c-3.905,3.905-3.905,10.237,0.001,14.142l17.074,17.073
	c-15.746,6.625-30.537,11.996-43.442,15.724c-24.441,7.06-35.535,6.335-38.772,5.174c-1.011-2.851-1.79-11.938,3.118-31.331
	c4.88-19.281,13.88-43.374,26.029-69.676c21.442-46.422,48.849-91.989,77.796-129.851l23.014,23.014
	c1.953,1.953,4.512,2.929,7.071,2.929s5.119-0.976,7.071-2.929c3.905-3.905,3.905-10.237,0-14.143l-24.643-24.643
	c4.618-5.598,9.258-10.984,13.904-16.123c3.704-4.097,3.385-10.42-0.711-14.124c-4.097-3.704-10.42-3.385-14.124,0.711
	C99.298,259.333,59.861,320.645,31.107,383.294c-12.675,27.613-22.012,52.969-27.002,73.327
	c-6.005,24.502-5.433,39.865,1.802,48.349c0.343,0.402,0.718,0.776,1.12,1.12c3.371,2.875,8.85,5.91,20.202,5.909
	c7.963,0,18.816-1.494,33.855-5.584c23.459-6.381,52.119-17.709,82.88-32.758c71.844-35.148,136.769-80.986,178.128-125.762
	c25.911-28.051,42.361-55.365,49.001-81.311c7.474,3.33,17.176,6.392,27.592,6.392c4.141,0,8.397-0.484,12.666-1.628
	c24.782-6.641,42.74-28.057,45.629-52.925c24.869-2.89,46.284-20.849,52.925-45.629C516.547,148.011,506.98,121.752,486.887,106.815
	z M490.588,167.617c-5.106,19.057-23.094,32.166-42.755,31.161c-2.831-0.145-5.579,0.916-7.579,2.917c-2,2-3.06,4.754-2.916,7.579
	c1,19.668-12.105,37.649-31.161,42.755c-10.282,2.755-22.637-1.126-31.847-6.137c0.58-10.672-0.601-20.999-3.546-30.946
	c12.192-10.389,30.368-20.735,45.682-22.799c5.474-0.737,9.313-5.773,8.575-11.246c-0.737-5.474-5.776-9.313-11.246-8.575
	c-17.755,2.393-36.989,12.655-51.109,23.48c-3.357-6.029-7.433-11.895-12.216-17.593c22.646-17.775,44.097-40.285,58.207-61.238
	c3.085-4.581,1.872-10.795-2.709-13.88c-4.58-3.084-10.795-1.871-13.88,2.709c-13.357,19.836-33.969,41.27-55.661,57.995
	c-6.521-5.777-13.273-10.603-20.239-14.477c10.827-14.12,21.093-33.359,23.487-51.117c0.738-5.473-3.101-10.508-8.574-11.246
	c-5.468-0.735-10.508,3.101-11.246,8.574c-2.065,15.32-12.417,33.502-22.81,45.695c-9.855-2.924-20.061-4.128-30.566-3.603
	c-5.31-9.545-9.204-21.735-6.507-31.803c5.107-19.057,23.085-32.167,42.756-31.161c2.816,0.132,5.578-0.916,7.579-2.916
	c2-2.001,3.06-4.754,2.917-7.579c-1-19.668,12.104-37.649,31.16-42.756c19.057-5.106,39.398,3.914,48.364,21.447
	c1.288,2.518,3.582,4.374,6.315,5.105c2.733,0.733,5.647,0.273,8.021-1.264c16.533-10.699,38.659-8.341,52.609,5.608
	c13.949,13.95,16.309,36.075,5.609,52.609c-1.537,2.375-1.996,5.29-1.264,8.021c0.732,2.732,2.587,5.027,5.105,6.315
	C486.674,128.221,495.694,148.561,490.588,167.617z"/>
<path d="M200.28,332.947l27.458,27.458c1.953,1.953,4.512,2.929,7.071,2.929s5.119-0.977,7.071-2.929
	c3.906-3.905,3.906-10.237,0.001-14.142l-27.458-27.459c-3.905-3.906-10.237-3.905-14.142,0
	C196.375,322.709,196.375,329.042,200.28,332.947z"/>
<path d="M305.79,239.255c1.953,1.953,4.512,2.929,7.071,2.929c2.559,0,5.119-0.977,7.071-2.929c3.906-3.905,3.906-10.237,0-14.142
	l-28.909-28.909c-3.905-3.906-10.236-3.905-14.143-0.001c-3.905,3.905-3.905,10.237,0,14.142L305.79,239.255z"/>
<path d="M230.244,259.394c2.559,0,5.119-0.976,7.071-2.929c3.905-3.905,3.905-10.237,0-14.143l-18.303-18.303
	c-3.905-3.905-10.237-3.905-14.143,0c-3.905,3.905-3.905,10.237,0,14.143l18.303,18.303
	C225.125,258.418,227.685,259.394,230.244,259.394z"/>
<path d="M423.245,79.795c-4.473-3.239-10.725-2.24-13.964,2.234l-0.158,0.218c-3.239,4.473-2.239,10.725,2.234,13.964
	c1.773,1.284,3.824,1.901,5.857,1.901c3.097,0,6.152-1.435,8.107-4.135l0.158-0.218C428.718,89.288,427.718,83.034,423.245,79.795z"
	/>
<path d="M108.632,347.049c-3.905,3.905-3.905,10.237,0,14.142l23.494,23.495c1.953,1.953,4.512,2.929,7.071,2.929
	s5.119-0.977,7.071-2.929c3.905-3.905,3.905-10.237,0.001-14.142l-23.494-23.495C118.87,343.144,112.537,343.144,108.632,347.049z"
	/>
<path d="M166.594,390.868c-3.9-3.91-10.232-3.918-14.142-0.018c-3.91,3.9-3.919,10.232-0.018,14.142l0.19,0.19
	c1.954,1.958,4.517,2.938,7.08,2.938c2.555,0,5.11-0.973,7.062-2.92c3.91-3.9,3.919-10.232,0.018-14.142L166.594,390.868z"/>
<g>
</g>
<g>
</g>
<g>
</g>
<g>
</g>
<g>
</g>
<g>
</g>
<g>
</g>
<g>
</g>
<g>
</g>
<g>
</g>
<g>
</g>
<g>
</g>
<g>
</g>
<g>
</g>
<g>
</g>
</svg>
